<svg xmlns="http://www.w3.org/2000/svg" xmlns:xlink="http://www.w3.org/1999/xlink" version="1.1" width="1000" height="1000" viewBox="0 0 1000 1000" xml:space="preserve">
<desc>Created with Fabric.js 3.5.0</desc>
<defs>
</defs>
<rect x="0" y="0" width="100%" height="100%" fill="rgba(255,255,255,0)"/>
<g transform="matrix(-31.2299 0 0 31.2299 499.6784 499.6784)" id="271461">
<g style="" vector-effect="non-scaling-stroke">
		<g transform="matrix(1 0 0 1 -11.1251 -9.4951)">
<path style="stroke: none; stroke-width: 1; stroke-dasharray: none; stroke-linecap: butt; stroke-dashoffset: 0; stroke-linejoin: miter; stroke-miterlimit: 4; is-custom-font: none; font-file-url: none; fill: rgb(0,132,99); fill-rule: nonzero; opacity: 1;" transform=" translate(-4.8749, -6.5048)" d="m 2.6272 3.69393 c 0.16898 -0.32186 0.56688 -0.44579 0.88873 -0.27681 l 1.59865 0.83932 c 1.27941 0.66455 2.08359 2.00065 2.08359 3.44346 v 1.31 c 0 0.36351 -0.29469 0.6582 -0.6582 0.6582 s -0.6582 -0.29469 -0.6582 -0.6582 v -1.31 c 0 -0.95664 -0.53521 -1.84004 -1.37494 -2.27575 l -0.00283 -0.00147 l -1.59999 -0.84003 c -0.32185 -0.16898 -0.44578 -0.56687 -0.27681 -0.88872 z" stroke-linecap="round"/>
</g>
		<g transform="matrix(1 0 0 1 -5.4449 -9.4951)">
<path style="stroke: none; stroke-width: 1; stroke-dasharray: none; stroke-linecap: butt; stroke-dashoffset: 0; stroke-linejoin: miter; stroke-miterlimit: 4; is-custom-font: none; font-file-url: none; fill: rgb(0,132,99); fill-rule: nonzero; opacity: 1;" transform=" translate(-10.5551, -6.5048)" d="m 12.8028 3.69393 c 0.169 0.32185 0.045 0.71974 -0.2768 0.88872 l -1.6028 0.84151 c -0.8398 0.43571 -1.37498 1.3191 -1.37498 2.27574 v 1.31 c 0 0.36351 -0.29468 0.6582 -0.6582 0.6582 c -0.36351 0 -0.6582 -0.29469 -0.6582 -0.6582 v -1.31 c 0 -1.44281 0.80418 -2.77891 2.08358 -3.44346 l 1.5987 -0.83932 c 0.3218 -0.16898 0.7197 -0.04505 0.8887 0.27681 z" stroke-linecap="round"/>
</g>
		<g transform="matrix(1 0 0 1 -3.77 3.57)">
<path style="stroke: none; stroke-width: 1; stroke-dasharray: none; stroke-linecap: butt; stroke-dashoffset: 0; stroke-linejoin: miter; stroke-miterlimit: 4; is-custom-font: none; font-file-url: none; fill: rgb(0,132,99); fill-rule: nonzero; opacity: 1;" transform=" translate(-12.23, -19.57)" d="m 12.23 20.9 c 0.7346 0 1.33 -0.5955 1.33 -1.3301 c 0 -0.7345 -0.5954 -1.3299 -1.33 -1.3299 c -0.7345 0 -1.33 0.5954 -1.33 1.3299 c 0 0.7346 0.5955 1.3301 1.33 1.3301 z" stroke-linecap="round"/>
</g>
		<g transform="matrix(1 0 0 1 -2.44 7.56)">
<path style="stroke: none; stroke-width: 1; stroke-dasharray: none; stroke-linecap: butt; stroke-dashoffset: 0; stroke-linejoin: miter; stroke-miterlimit: 4; is-custom-font: none; font-file-url: none; fill: rgb(0,132,99); fill-rule: nonzero; opacity: 1;" transform=" translate(-13.56, -23.56)" d="m 14.89 23.56 c 0 0.7345 -0.5955 1.33 -1.33 1.33 c -0.7346 0 -1.33 -0.5955 -1.33 -1.33 s 0.5954 -1.33 1.33 -1.33 c 0.7345 0 1.33 0.5955 1.33 1.33 z" stroke-linecap="round"/>
</g>
		<g transform="matrix(1 0 0 1 0.22 10.83)">
<path style="stroke: none; stroke-width: 1; stroke-dasharray: none; stroke-linecap: butt; stroke-dashoffset: 0; stroke-linejoin: miter; stroke-miterlimit: 4; is-custom-font: none; font-file-url: none; fill: rgb(0,132,99); fill-rule: nonzero; opacity: 1;" transform=" translate(-16.22, -26.83)" d="m 16.22 28.16 c 0.7346 0 1.33 -0.5954 1.33 -1.33 c 0 -0.7345 -0.5954 -1.33 -1.33 -1.33 c -0.7345 0 -1.33 0.5955 -1.33 1.33 c 0 0.7346 0.5955 1.33 1.33 1.33 z" stroke-linecap="round"/>
</g>
		<g transform="matrix(1 0 0 1 4.6499 12.0199)">
<path style="stroke: none; stroke-width: 1; stroke-dasharray: none; stroke-linecap: butt; stroke-dashoffset: 0; stroke-linejoin: miter; stroke-miterlimit: 4; is-custom-font: none; font-file-url: none; fill: rgb(0,132,99); fill-rule: nonzero; opacity: 1;" transform=" translate(-20.6499, -28.02)" d="m 21.9799 28.02 c 0 0.7345 -0.5954 1.33 -1.33 1.33 c -0.7345 0 -1.33 -0.5955 -1.33 -1.33 c 0 -0.7346 0.5955 -1.3301 1.33 -1.3301 c 0.7346 0 1.33 0.5955 1.33 1.3301 z" stroke-linecap="round"/>
</g>
		<g transform="matrix(1 0 0 1 9.25 12.0199)">
<path style="stroke: none; stroke-width: 1; stroke-dasharray: none; stroke-linecap: butt; stroke-dashoffset: 0; stroke-linejoin: miter; stroke-miterlimit: 4; is-custom-font: none; font-file-url: none; fill: rgb(0,132,99); fill-rule: nonzero; opacity: 1;" transform=" translate(-25.25, -28.02)" d="m 26.58 28.02 c 0 0.7345 -0.5954 1.33 -1.33 1.33 c -0.7345 0 -1.33 -0.5955 -1.33 -1.33 c 0 -0.7346 0.5955 -1.3301 1.33 -1.3301 c 0.7346 0 1.33 0.5955 1.33 1.3301 z" stroke-linecap="round"/>
</g>
		<g transform="matrix(1 0 0 1 0.1355 2)">
<path style="stroke: none; stroke-width: 1; stroke-dasharray: none; stroke-linecap: butt; stroke-dashoffset: 0; stroke-linejoin: miter; stroke-miterlimit: 4; is-custom-font: none; font-file-url: none; fill: rgb(0,210,106); fill-rule: nonzero; opacity: 1;" transform=" translate(-16.1355, -18)" d="m 20.36 28.02 h 5.89 c 2.03 0 3.74 -1.6601 3.7 -3.7001 c -0.04 -1.97 -1.65 -3.56 -3.63 -3.56 h -4.44 c -0.96 0 -1.8 -0.64 -2.05 -1.57 l -1.59 -5.7799 c -0.88 -3.21 -3.8 -5.43002 -7.12 -5.43002 h -4.65003 c -1.55283 0 -2.91843 0.97134 -3.45671 2.34112 l -0.69295 1.3589 l 0.69295 1.2365 c 0.52587 1.3582 1.84398 2.3235 3.38671 2.3235 h 3.2 c 0.96003 0 1.80003 0.64 2.05003 1.57 l 1.59 5.78 c 0.88 3.21 3.8 5.43 7.12 5.43 z" stroke-linecap="round"/>
</g>
		<g transform="matrix(1 0 0 1 -13.4906 -4.38)">
<path style="stroke: none; stroke-width: 1; stroke-dasharray: none; stroke-linecap: butt; stroke-dashoffset: 0; stroke-linejoin: miter; stroke-miterlimit: 4; is-custom-font: none; font-file-url: none; fill: rgb(33,33,33); fill-rule: nonzero; opacity: 1;" transform=" translate(-2.5094, -11.62)" d="m 2.76997 11.68 c -0.00948 -0.484 0.07952 -0.9466 0.24792 -1.3707 c -0.05743 -0.0126 -0.11696 -0.0193 -0.17789 -0.0193 c -0.46 0 -0.84 0.37 -0.84 0.84 v 0.98 c 0 0.46 0.38 0.84 0.84 0.84 c 0.06122 0 0.12103 -0.0067 0.17871 -0.0195 c -0.15241 -0.3888 -0.23979 -0.8102 -0.24874 -1.2505 z" stroke-linecap="round"/>
</g>
		<g transform="matrix(1 0 0 1 -10.8 -4.38)">
<path style="stroke: none; stroke-width: 1; stroke-dasharray: none; stroke-linecap: butt; stroke-dashoffset: 0; stroke-linejoin: miter; stroke-miterlimit: 4; is-custom-font: none; font-file-url: none; fill: rgb(33,33,33); fill-rule: nonzero; opacity: 1;" transform=" translate(-5.2, -11.62)" d="m 6.03999 11.13 c 0 -0.46 -0.38 -0.84 -0.84 -0.84 c -0.47 0 -0.84 0.37 -0.84 0.84 v 0.98 c 0 0.46 0.38 0.84 0.84 0.84 s 0.84 -0.38 0.84 -0.84 z" stroke-linecap="round"/>
</g>
</g>
</g>
</svg>